<?xml version="1.0" encoding="UTF-8" standalone="no"?>
<svg
   width="3945.0261"
   height="993.68451"
   viewBox="0 0 3945.0261 993.68451"
   version="1.1"
   xml:space="preserve"
   style="clip-rule:evenodd;fill-rule:evenodd;stroke-linejoin:round;stroke-miterlimit:2"
   id="svg8"
   sodipodi:docname="logo.svg"
   inkscape:version="1.4.2 (f4327f4, 2025-05-13)"
   xmlns:inkscape="http://www.inkscape.org/namespaces/inkscape"
   xmlns:sodipodi="http://sodipodi.sourceforge.net/DTD/sodipodi-0.dtd"
   xmlns="http://www.w3.org/2000/svg"
   xmlns:svg="http://www.w3.org/2000/svg"><sodipodi:namedview
   id="namedview8"
   pagecolor="#ffffff"
   bordercolor="#999999"
   borderopacity="1"
   inkscape:showpageshadow="2"
   inkscape:pageopacity="0"
   inkscape:pagecheckerboard="0"
   inkscape:deskcolor="#d1d1d1"
   inkscape:zoom="0.15409384"
   inkscape:cx="2255.1194"
   inkscape:cy="97.343284"
   inkscape:window-width="1440"
   inkscape:window-height="829"
   inkscape:window-x="-8"
   inkscape:window-y="-8"
   inkscape:window-maximized="1"
   inkscape:current-layer="svg8" />
    <g
   transform="translate(22.520197,22.520228)"
   id="g7">
        <g
   transform="matrix(1.080642,0,0,1.080642,-823.23711,-1545.8105)"
   id="g6">
            <g
   transform="matrix(115.77546,0,0,115.77546,761.80367,1430.4556)"
   id="g2">
                <path
   d="M 3.531,0 H 5.837 C 5.617,2.493 5.483,4.971 5.435,7.433 H 3.933 L 3.92,7.182 C 3.524,7.425 3.052,7.565 2.547,7.565 1.14,7.565 0,6.476 0,5.132 0,3.788 1.14,2.699 2.547,2.699 c 0.411,0 0.8,0.093 1.144,0.258 C 3.715,1.961 3.662,0.975 3.531,0 Z M 2.8,4.167 C 2.241,4.167 1.788,4.621 1.789,5.182 1.788,5.743 2.241,6.198 2.8,6.198 3.359,6.197 3.805,5.805 3.78,5.152 3.754,4.467 3.32,4.167 2.8,4.167 Z M 5.958,2.699 H 7.723 C 7.655,3.041 7.626,3.38 7.635,3.717 7.961,2.699 8.872,1.602 9.691,1.602 l 0.904,0.892 C 9.065,2.62 7.62,4.784 7.303,7.433 h -1.6 C 5.897,5.84 6.085,4.247 5.958,2.699 Z m 5.526,-0.138 c 0.645,0 1.27,0.215 1.759,0.606 0.489,-0.391 1.113,-0.606 1.759,-0.606 0.685,10e-4 1.345,0.246 1.844,0.682 0.498,-0.436 1.158,-0.681 1.844,-0.682 1.478,0 2.694,1.13 2.694,2.502 0,1.373 -1.216,2.502 -2.694,2.502 C 18.004,7.564 17.344,7.32 16.846,6.883 16.347,7.32 15.687,7.564 15.002,7.565 14.356,7.565 13.732,7.35 13.243,6.959 12.754,7.35 12.129,7.565 11.484,7.565 v 0 c -1.479,0 -2.696,-1.129 -2.696,-2.502 0,-1.372 1.217,-2.502 2.696,-2.502 z m 3.618,1.68 C 14.543,4.24 14.09,4.708 14.09,5.284 c 0,0.577 0.453,1.044 1.012,1.044 0.558,0 1.005,-0.403 0.98,-1.075 -0.026,-0.704 -0.46,-1.012 -0.98,-1.012 z m -3.109,0 c -0.559,-10e-4 -1.012,0.467 -1.012,1.043 0,0.577 0.453,1.044 1.012,1.044 0.558,0 1.005,-0.403 0.98,-1.075 -0.026,-0.704 -0.46,-1.012 -0.98,-1.012 z m 6.218,0 c -0.559,-10e-4 -1.012,0.467 -1.012,1.043 0,0.577 0.453,1.044 1.012,1.044 0.558,0 1.004,-0.403 0.98,-1.075 -0.026,-0.704 -0.46,-1.012 -0.98,-1.012 z M 21.236,2.696 H 23.19 C 23.4,3.592 23.77,4.329 24.191,5.015 24.179,4.242 24.16,3.469 24.117,2.696 h 1.737 c -0.205,1.558 -0.273,3.13 -0.115,4.735 H 24.136 C 23.849,6.463 23.458,5.745 23.029,5.12 23.01,5.89 22.959,6.66 22.873,7.431 H 21.352 C 21.606,5.806 21.568,4.227 21.236,2.696 Z m 6.471,0.003 c 1.385,-0.479 2.893,0.194 3.342,1.491 0.036,0.106 0.066,0.215 0.087,0.326 l -3.26,1.366 c 0,0 0.467,0.591 1.202,0.337 0.562,-0.194 0.567,-0.686 0.567,-0.686 L 31.129,5.445 C 30.945,6.35 30.259,7.111 29.343,7.428 27.958,7.907 26.45,7.233 26.001,5.936 25.552,4.639 26.322,3.177 27.707,2.699 Z m 0.422,1.22 c -0.762,0.264 -0.543,1.123 -0.543,1.123 l 1.587,-0.679 c 0,0 -0.446,-0.65 -1.044,-0.444 z"
   id="path1" />
                <path
   d="m 11.484,7.745 v 0 C 9.903,7.745 8.608,6.531 8.608,5.063 8.608,4.417 8.859,3.82 9.275,3.354 9.182,3.443 9.092,3.539 9.003,3.642 8.245,4.524 7.667,5.905 7.481,7.455 L 7.463,7.613 H 5.5 v 0 H 3.763 L 3.755,7.475 c -0.364,0.173 -0.774,0.27 -1.208,0.27 -1.508,0 -2.727,-1.172 -2.727,-2.613 0,-1.441 1.219,-2.613 2.727,-2.613 0.341,0 0.668,0.06 0.969,0.169 C 3.525,1.791 3.47,0.903 3.353,0.024 L 3.325,-0.18 H 6.034 L 6.017,0.016 C 5.943,0.852 5.879,1.686 5.824,2.519 H 7.942 L 7.899,2.734 7.897,2.745 C 8.095,2.431 8.333,2.143 8.589,1.918 8.939,1.61 9.325,1.422 9.691,1.422 h 0.074 l 1.048,1.034 c 0.215,-0.049 0.44,-0.075 0.671,-0.075 v 0.18 c -1.479,0 -2.696,1.13 -2.696,2.502 0,1.346 1.17,2.458 2.609,2.501 0.027,0.087 0.082,0.175 0.087,0.181 z m 0,-5.184 v -0.18 z m 0,0 v -0.18 c 0.638,0 1.257,0.198 1.759,0.56 0.502,-0.362 1.121,-0.56 1.759,-0.56 v 0 c 0.677,0.001 1.329,0.226 1.844,0.629 0.514,-0.403 1.167,-0.628 1.843,-0.629 h 0.001 c 1.11,0 2.08,0.6 2.558,1.466 C 21.202,3.473 21.14,3.102 21.06,2.734 L 21.013,2.516 h 2.319 l 0.033,0.139 c 0.145,0.619 0.369,1.16 0.633,1.661 -0.013,-0.537 -0.031,-1.073 -0.061,-1.61 l -0.01,-0.19 h 2.132 l -0.026,0.203 c -0.065,0.492 -0.116,0.985 -0.151,1.481 0.296,-0.747 0.924,-1.38 1.766,-1.672 1.481,-0.512 3.091,0.216 3.571,1.603 v 10e-4 c 0.039,0.114 0.071,0.231 0.093,0.35 l 0.028,0.143 -1.742,0.731 1.754,-0.104 -0.047,0.229 c -0.196,0.966 -0.926,1.779 -1.903,2.117 -1.476,0.511 -3.081,-0.211 -3.566,-1.59 0.009,0.466 0.036,0.934 0.082,1.405 l 0.02,0.198 H 24.002 L 23.963,7.482 C 23.753,6.773 23.486,6.201 23.189,5.702 23.162,6.285 23.117,6.868 23.052,7.45 l -0.018,0.161 h -1.893 l 0.033,-0.208 c 0.065,-0.419 0.111,-0.834 0.138,-1.246 -0.452,0.931 -1.46,1.588 -2.623,1.588 v 0 C 18.013,7.744 17.36,7.52 16.846,7.117 16.331,7.52 15.679,7.744 15.002,7.745 v 0 c -0.638,0 -1.257,-0.198 -1.759,-0.56 -0.502,0.362 -1.121,0.56 -1.759,0.56 v -0.18 c 0.645,0 1.27,-0.215 1.759,-0.606 0.489,0.391 1.113,0.606 1.759,0.606 0.685,-0.001 1.345,-0.245 1.844,-0.682 0.498,0.437 1.158,0.681 1.844,0.682 1.478,0 2.694,-1.129 2.694,-2.502 0,-1.372 -1.216,-2.502 -2.694,-2.502 -0.686,10e-4 -1.346,0.246 -1.844,0.682 -0.499,-0.436 -1.159,-0.681 -1.844,-0.682 -0.646,0 -1.27,0.215 -1.759,0.606 C 12.754,2.776 12.129,2.561 11.484,2.561 Z m 0,5.184 v -0.18 0 z M 27.707,2.699 c -1.385,0.478 -2.155,1.94 -1.706,3.237 0.449,1.297 1.957,1.971 3.342,1.492 0.916,-0.317 1.602,-1.078 1.786,-1.983 l -1.484,0.088 c 0,0 -0.005,0.492 -0.567,0.686 -0.735,0.254 -1.202,-0.337 -1.202,-0.337 l 3.26,-1.366 C 31.115,4.405 31.085,4.296 31.049,4.19 30.6,2.893 29.092,2.22 27.707,2.699 Z m 0.422,1.22 c 0.598,-0.206 1.044,0.444 1.044,0.444 l -1.587,0.679 c 0,0 -0.219,-0.859 0.543,-1.123 z M 28.188,4.09 C 27.795,4.226 27.73,4.56 27.734,4.783 L 28.873,4.295 C 28.843,4.267 28.808,4.237 28.769,4.209 28.624,4.102 28.421,4.009 28.188,4.09 Z M 21.236,2.696 c 0.332,1.531 0.37,3.11 0.116,4.735 h 1.521 C 22.959,6.66 23.01,5.89 23.029,5.12 c 0.429,0.625 0.82,1.343 1.107,2.311 h 1.603 C 25.581,5.826 25.649,4.254 25.854,2.696 H 24.117 C 24.16,3.469 24.179,4.242 24.191,5.015 23.77,4.329 23.4,3.592 23.19,2.696 Z m 8.231,2.715 -1.26,0.528 c 0.172,0.118 0.454,0.234 0.812,0.11 C 29.451,5.9 29.465,5.531 29.465,5.531 Z M 5.958,2.699 C 6.085,4.247 5.897,5.84 5.703,7.433 h 1.6 C 7.62,4.784 9.065,2.62 10.595,2.494 L 9.691,1.602 C 8.872,1.602 7.961,2.699 7.635,3.717 7.626,3.38 7.655,3.041 7.723,2.699 Z M 3.531,0 C 3.662,0.975 3.715,1.961 3.691,2.957 3.347,2.792 2.958,2.699 2.547,2.699 1.14,2.699 0,3.788 0,5.132 0,6.476 1.14,7.565 2.547,7.565 3.052,7.565 3.524,7.425 3.92,7.182 L 3.933,7.433 H 5.435 C 5.483,4.971 5.617,2.493 5.837,0 Z M 2.8,4.167 c 0.52,0 0.954,0.3 0.98,0.985 C 3.805,5.805 3.359,6.197 2.8,6.198 2.241,6.198 1.788,5.743 1.789,5.182 1.788,4.621 2.241,4.167 2.8,4.167 Z m 0,0.18 c -0.459,0 -0.832,0.374 -0.832,0.835 v 0 c 0,0.461 0.373,0.836 0.832,0.836 v 0 C 3.258,6.017 3.621,5.694 3.6,5.159 3.59,4.875 3.501,4.669 3.355,4.536 3.21,4.405 3.013,4.347 2.8,4.347 Z M 5.639,6.444 C 5.77,5.273 5.865,4.107 5.796,2.964 5.725,4.127 5.672,5.287 5.639,6.444 Z M 18.211,4.241 c 0.52,0 0.954,0.308 0.98,1.012 0.024,0.672 -0.422,1.075 -0.98,1.075 -0.559,0 -1.012,-0.467 -1.012,-1.044 0,-0.576 0.453,-1.044 1.012,-1.043 z M 18.21,4.421 C 17.749,4.42 17.379,4.809 17.379,5.284 v 0 c 0,0.476 0.37,0.864 0.831,0.864 v 0 c 0.459,0 0.821,-0.336 0.801,-0.888 C 19,4.966 18.911,4.752 18.763,4.615 18.619,4.48 18.423,4.421 18.21,4.421 Z m -6.217,-0.18 c 0.52,0 0.954,0.308 0.98,1.012 0.025,0.672 -0.422,1.075 -0.98,1.075 -0.559,0 -1.012,-0.467 -1.012,-1.044 0,-0.576 0.453,-1.044 1.012,-1.043 z m 0,0.18 C 11.532,4.42 11.161,4.809 11.161,5.284 v 0 c 0,0.476 0.371,0.864 0.832,0.864 v 0 c 0.459,0 0.821,-0.336 0.8,-0.888 C 12.783,4.966 12.693,4.752 12.546,4.615 12.401,4.48 12.205,4.421 11.993,4.421 Z m 3.109,-0.18 c 0.52,0 0.954,0.308 0.98,1.012 0.025,0.672 -0.422,1.075 -0.98,1.075 -0.559,0 -1.012,-0.467 -1.012,-1.044 0,-0.576 0.453,-1.044 1.012,-1.043 z m 0,0.18 C 14.641,4.42 14.27,4.809 14.27,5.284 v 0 c 0,0.476 0.371,0.864 0.832,0.864 v 0 c 0.459,0 0.82,-0.336 0.8,-0.888 C 15.891,4.966 15.802,4.752 15.654,4.615 15.51,4.48 15.314,4.421 15.102,4.421 Z"
   style="fill:#601403"
   id="path2" />
            </g>
            <g
   transform="matrix(115.77546,0,0,115.77546,761.80367,1430.4556)"
   id="g4">
                <path
   d="M 3.531,0 H 5.837 C 5.617,2.493 5.483,4.971 5.435,7.433 H 3.933 L 3.92,7.182 C 3.524,7.425 3.052,7.565 2.547,7.565 1.14,7.565 0,6.476 0,5.132 0,3.788 1.14,2.699 2.547,2.699 c 0.411,0 0.8,0.093 1.144,0.258 C 3.715,1.961 3.662,0.975 3.531,0 Z M 2.8,4.167 C 2.241,4.167 1.788,4.621 1.789,5.182 1.788,5.743 2.241,6.198 2.8,6.198 3.359,6.197 3.805,5.805 3.78,5.152 3.754,4.467 3.32,4.167 2.8,4.167 Z M 5.958,2.699 H 7.723 C 7.655,3.041 7.626,3.38 7.635,3.717 7.961,2.699 8.872,1.602 9.691,1.602 l 0.904,0.892 C 9.065,2.62 7.62,4.784 7.303,7.433 h -1.6 C 5.897,5.84 6.085,4.247 5.958,2.699 Z m 5.526,-0.138 c 0.645,0 1.27,0.215 1.759,0.606 0.489,-0.391 1.113,-0.606 1.759,-0.606 0.685,10e-4 1.345,0.246 1.844,0.682 0.498,-0.436 1.158,-0.681 1.844,-0.682 1.478,0 2.694,1.13 2.694,2.502 0,1.373 -1.216,2.502 -2.694,2.502 C 18.004,7.564 17.344,7.32 16.846,6.883 16.347,7.32 15.687,7.564 15.002,7.565 14.356,7.565 13.732,7.35 13.243,6.959 12.754,7.35 12.129,7.565 11.484,7.565 v 0 c -1.479,0 -2.696,-1.129 -2.696,-2.502 0,-1.372 1.217,-2.502 2.696,-2.502 z m 3.618,1.68 C 14.543,4.24 14.09,4.708 14.09,5.284 c 0,0.577 0.453,1.044 1.012,1.044 0.558,0 1.005,-0.403 0.98,-1.075 -0.026,-0.704 -0.46,-1.012 -0.98,-1.012 z m -3.109,0 c -0.559,-10e-4 -1.012,0.467 -1.012,1.043 0,0.577 0.453,1.044 1.012,1.044 0.558,0 1.005,-0.403 0.98,-1.075 -0.026,-0.704 -0.46,-1.012 -0.98,-1.012 z m 6.218,0 c -0.559,-10e-4 -1.012,0.467 -1.012,1.043 0,0.577 0.453,1.044 1.012,1.044 0.558,0 1.004,-0.403 0.98,-1.075 -0.026,-0.704 -0.46,-1.012 -0.98,-1.012 z M 21.236,2.696 H 23.19 C 23.4,3.592 23.77,4.329 24.191,5.015 24.179,4.242 24.16,3.469 24.117,2.696 h 1.737 c -0.205,1.558 -0.273,3.13 -0.115,4.735 H 24.136 C 23.849,6.463 23.458,5.745 23.029,5.12 23.01,5.89 22.959,6.66 22.873,7.431 H 21.352 C 21.606,5.806 21.568,4.227 21.236,2.696 Z m 6.471,0.003 c 1.385,-0.479 2.893,0.194 3.342,1.491 0.036,0.106 0.066,0.215 0.087,0.326 l -3.26,1.366 c 0,0 0.467,0.591 1.202,0.337 0.562,-0.194 0.567,-0.686 0.567,-0.686 L 31.129,5.445 C 30.945,6.35 30.259,7.111 29.343,7.428 27.958,7.907 26.45,7.233 26.001,5.936 25.552,4.639 26.322,3.177 27.707,2.699 Z m 0.422,1.22 c -0.762,0.264 -0.543,1.123 -0.543,1.123 l 1.587,-0.679 c 0,0 -0.446,-0.65 -1.044,-0.444 z"
   style="fill:url(#_Linear1)"
   id="path3" />
                <path
   d="M 11.397,7.564 C 9.958,7.521 8.788,6.409 8.788,5.063 c 0,-1.372 1.217,-2.502 2.696,-2.502 v 0 0.18 0 c -1.377,0 -2.516,1.045 -2.516,2.322 0,1.278 1.139,2.322 2.516,2.322 -0.115,0.001 -0.116,0.09 -0.087,0.179 z m 0.087,-4.823 v -0.18 c 0.645,0 1.27,0.215 1.759,0.606 0.489,-0.391 1.113,-0.606 1.759,-0.606 0.685,10e-4 1.345,0.246 1.844,0.682 0.498,-0.436 1.158,-0.681 1.844,-0.682 1.478,0 2.694,1.13 2.694,2.502 0,1.373 -1.216,2.502 -2.694,2.502 C 18.004,7.564 17.344,7.32 16.846,6.883 16.347,7.32 15.687,7.564 15.002,7.565 14.356,7.565 13.732,7.35 13.243,6.959 12.754,7.35 12.129,7.565 11.484,7.565 v -0.18 c 0.604,0.001 1.189,-0.2 1.646,-0.566 l 0.113,-0.09 0.112,0.09 c 0.458,0.366 1.043,0.566 1.647,0.566 0.641,-10e-4 1.259,-0.229 1.725,-0.637 l 0.119,-0.104 0.118,0.104 c 0.467,0.408 1.084,0.636 1.726,0.637 1.376,0 2.515,-1.044 2.515,-2.322 0,-1.277 -1.139,-2.322 -2.515,-2.322 -0.642,10e-4 -1.259,0.229 -1.726,0.638 L 16.846,3.483 16.727,3.379 C 16.261,2.97 15.643,2.742 15.002,2.741 c -0.604,0 -1.189,0.201 -1.647,0.567 L 13.243,3.398 13.13,3.308 C 12.673,2.942 12.088,2.741 11.484,2.741 Z m 0,4.644 v 0 0.18 0 z M 21.236,2.696 H 23.19 C 23.4,3.592 23.77,4.329 24.191,5.015 24.179,4.242 24.16,3.469 24.117,2.696 h 1.737 c -0.205,1.558 -0.273,3.13 -0.115,4.735 H 24.136 C 23.849,6.463 23.458,5.745 23.029,5.12 23.01,5.89 22.959,6.66 22.873,7.431 H 21.352 C 21.606,5.806 21.568,4.227 21.236,2.696 Z m 0.221,0.18 c 0.281,1.419 0.316,2.877 0.103,4.375 h 1.151 c 0.075,-0.712 0.121,-1.424 0.138,-2.136 l 0.014,-0.556 0.314,0.459 c 0.42,0.611 0.803,1.309 1.092,2.233 h 1.273 C 25.412,5.77 25.471,4.317 25.65,2.876 h -1.343 c 0.036,0.712 0.053,1.424 0.064,2.136 l 0.01,0.656 -0.344,-0.559 C 23.629,4.444 23.268,3.73 23.049,2.876 Z m 6.25,-0.177 c 1.385,-0.479 2.893,0.194 3.342,1.491 0.036,0.106 0.066,0.215 0.087,0.326 l -3.26,1.366 c 0,0 0.467,0.591 1.202,0.337 0.562,-0.194 0.567,-0.686 0.567,-0.686 L 31.129,5.445 C 30.945,6.35 30.259,7.111 29.343,7.428 27.958,7.907 26.45,7.233 26.001,5.936 25.552,4.639 26.322,3.177 27.707,2.699 Z m 0.059,0.17 C 26.477,3.314 25.753,4.67 26.171,5.877 26.589,7.085 27.996,7.704 29.284,7.258 30.06,6.989 30.661,6.381 30.893,5.64 L 29.801,5.704 C 29.75,5.904 29.598,6.23 29.137,6.389 28.279,6.686 27.735,5.994 27.735,5.994 l -0.147,-0.186 3.339,-1.4 C 30.913,4.354 30.897,4.301 30.879,4.249 30.461,3.042 29.054,2.423 27.766,2.869 Z m 0.304,0.88 c 0.365,-0.126 0.684,0.003 0.912,0.169 0.213,0.157 0.34,0.343 0.34,0.343 L 29.446,4.442 27.463,5.29 27.411,5.086 c 0,0 -0.252,-1.021 0.659,-1.337 z m 0.059,0.17 c -0.762,0.264 -0.543,1.123 -0.543,1.123 l 1.587,-0.679 c 0,0 -0.446,-0.65 -1.044,-0.444 z M 15.102,4.061 c 0.308,0 0.589,0.095 0.798,0.291 0.206,0.192 0.347,0.484 0.362,0.895 0.029,0.791 -0.502,1.261 -1.16,1.261 -0.657,0 -1.192,-0.546 -1.192,-1.224 0,-0.677 0.535,-1.224 1.192,-1.223 z m 0,0.18 C 14.543,4.24 14.09,4.708 14.09,5.284 c 0,0.577 0.453,1.044 1.012,1.044 0.558,0 1.005,-0.403 0.98,-1.075 -0.026,-0.704 -0.46,-1.012 -0.98,-1.012 z m 3.109,-0.18 c 0.308,0 0.589,0.095 0.798,0.291 0.206,0.192 0.347,0.484 0.362,0.895 0.029,0.791 -0.503,1.261 -1.16,1.261 -0.657,0 -1.192,-0.546 -1.192,-1.224 0,-0.677 0.535,-1.224 1.192,-1.223 z m 0,0.18 c -0.559,-10e-4 -1.012,0.467 -1.012,1.043 0,0.577 0.453,1.044 1.012,1.044 0.558,0 1.004,-0.403 0.98,-1.075 -0.026,-0.704 -0.46,-1.012 -0.98,-1.012 z m -6.218,-0.18 c 0.308,0 0.589,0.095 0.798,0.291 0.206,0.192 0.347,0.484 0.362,0.895 0.029,0.791 -0.502,1.261 -1.16,1.261 -0.657,0 -1.192,-0.546 -1.192,-1.224 0,-0.677 0.535,-1.224 1.192,-1.223 z m 0,0.18 c -0.559,-10e-4 -1.012,0.467 -1.012,1.043 0,0.577 0.453,1.044 1.012,1.044 0.558,0 1.005,-0.403 0.98,-1.075 -0.026,-0.704 -0.46,-1.012 -0.98,-1.012 z M 3.531,0 H 5.837 C 5.617,2.493 5.483,4.971 5.435,7.433 H 3.933 L 3.92,7.182 C 3.524,7.425 3.052,7.565 2.547,7.565 1.14,7.565 0,6.476 0,5.132 0,3.788 1.14,2.699 2.547,2.699 c 0.411,0 0.8,0.093 1.144,0.258 C 3.715,1.961 3.662,0.975 3.531,0 Z M 3.736,0.18 C 3.848,1.098 3.893,2.025 3.871,2.962 L 3.864,3.241 3.613,3.12 C 3.293,2.965 2.93,2.878 2.547,2.878 1.242,2.878 0.18,3.885 0.18,5.132 c 0,1.247 1.062,2.253 2.367,2.253 0.47,0 0.91,-0.13 1.279,-0.356 L 4.083,6.871 4.104,7.253 H 5.259 C 5.309,4.91 5.436,2.552 5.641,0.18 Z M 2.8,3.987 C 3.108,3.987 3.388,4.08 3.597,4.27 3.804,4.458 3.945,4.744 3.96,5.145 3.989,5.916 3.46,6.377 2.8,6.378 2.142,6.378 1.608,5.843 1.609,5.182 1.608,4.522 2.142,3.987 2.8,3.987 Z m 0,0.18 C 2.241,4.167 1.788,4.621 1.789,5.182 1.788,5.743 2.241,6.198 2.8,6.198 3.359,6.197 3.805,5.805 3.78,5.152 3.754,4.467 3.32,4.167 2.8,4.167 Z M 5.958,2.699 H 7.723 C 7.655,3.041 7.626,3.38 7.635,3.717 7.961,2.699 8.872,1.602 9.691,1.602 l 0.904,0.892 C 9.065,2.62 7.62,4.784 7.303,7.433 h -1.6 C 5.897,5.84 6.085,4.247 5.958,2.699 Z M 6.151,2.878 C 6.245,4.312 6.084,5.781 5.906,7.253 H 7.145 C 7.36,5.689 7.96,4.304 8.73,3.407 9.182,2.881 9.694,2.522 10.222,2.378 L 9.621,1.785 C 9.354,1.809 9.081,1.965 8.826,2.189 8.378,2.582 7.992,3.19 7.806,3.772 L 7.484,4.778 7.455,3.722 C 7.447,3.442 7.465,3.161 7.508,2.878 Z"
   style="fill:#ffffff;fill-opacity:0.25"
   id="path4" />
            </g>
            <g
   transform="matrix(115.77546,0,0,115.77546,761.80367,1430.4556)"
   id="g5">
                <path
   d="M 5.508,5.06 C 4.916,4.989 4.324,4.912 3.731,4.828 3.6,4.372 3.23,4.167 2.8,4.167 2.472,4.167 2.18,4.324 1.995,4.567 1.387,4.47 0.779,4.366 0.17,4.256 0.538,3.345 1.463,2.699 2.547,2.699 c 0.411,0 0.8,0.093 1.144,0.258 C 3.715,1.961 3.662,0.975 3.531,0 H 5.837 C 5.688,1.694 5.578,3.38 5.508,5.06 Z M 7.83,5.308 C 7.203,5.249 6.575,5.184 5.946,5.111 6.005,4.299 6.023,3.493 5.958,2.699 H 7.723 C 7.655,3.041 7.626,3.38 7.635,3.717 7.961,2.699 8.872,1.602 9.691,1.602 l 0.904,0.892 C 9.505,2.584 8.457,3.71 7.83,5.308 Z M 21.335,5.537 C 20.607,5.581 19.877,5.615 19.147,5.641 19.18,5.525 19.196,5.395 19.191,5.253 19.165,4.549 18.731,4.241 18.211,4.241 17.652,4.24 17.199,4.708 17.199,5.284 c 0,0.143 0.027,0.279 0.077,0.402 C 16.858,5.692 16.44,5.695 16.021,5.695 16.066,5.565 16.088,5.417 16.082,5.253 16.056,4.549 15.622,4.241 15.102,4.241 14.543,4.24 14.09,4.708 14.09,5.284 c 0,0.138 0.026,0.27 0.073,0.39 C 13.752,5.665 13.341,5.653 12.93,5.638 12.963,5.523 12.978,5.394 12.973,5.253 12.947,4.549 12.513,4.241 11.993,4.241 11.434,4.24 10.981,4.708 10.981,5.284 c 0,0.092 0.011,0.181 0.033,0.265 C 10.281,5.507 9.547,5.456 8.812,5.395 8.797,5.286 8.788,5.176 8.788,5.063 c 0,-1.372 1.217,-2.502 2.696,-2.502 v 0 c 0.645,0 1.27,0.215 1.759,0.606 0.489,-0.391 1.113,-0.606 1.759,-0.606 0.685,10e-4 1.345,0.246 1.844,0.682 0.498,-0.436 1.158,-0.681 1.844,-0.682 1.478,0 2.694,1.13 2.694,2.502 0,0.162 -0.016,0.321 -0.049,0.474 z M 25.657,5.173 C 24.845,5.261 24.031,5.339 23.217,5.405 23.156,5.307 23.093,5.212 23.029,5.12 23.027,5.22 23.024,5.32 23.02,5.421 22.519,5.46 22.018,5.495 21.516,5.526 21.53,4.566 21.437,3.622 21.236,2.696 H 23.19 C 23.4,3.592 23.77,4.329 24.191,5.015 24.179,4.242 24.16,3.469 24.117,2.696 h 1.737 c -0.108,0.821 -0.178,1.646 -0.197,2.477 z m 5.456,-0.762 c -1.061,0.181 -2.125,0.343 -3.189,0.486 l 1.249,-0.534 c 0,0 -0.446,-0.65 -1.044,-0.444 -0.604,0.21 -0.592,0.793 -0.561,1.025 -0.564,0.074 -1.129,0.142 -1.695,0.205 0.011,-1.054 0.726,-2.067 1.834,-2.45 1.385,-0.479 2.893,0.194 3.342,1.491 0.025,0.073 0.046,0.146 0.064,0.221 z"
   style="fill:#ffffff;fill-opacity:0.1"
   id="path5" />
            </g>
        </g>
    </g>
    <defs
   id="defs8">
        <linearGradient
   id="_Linear1"
   x1="0"
   y1="0"
   x2="1"
   y2="0"
   gradientUnits="userSpaceOnUse"
   gradientTransform="matrix(0,7.582368,-1.846511,0,15.567824,0)"><stop
     offset="0"
     style="stop-color:rgb(255,79,40);stop-opacity:1"
     id="stop7" /><stop
     offset="1"
     style="stop-color:rgb(226,42,0);stop-opacity:1"
     id="stop8" /></linearGradient>
    </defs>
</svg>
